<?xml version="1.0" encoding="UTF-8"?>
<svg width="24px" height="24px" viewBox="0 0 24 24" version="1.1" xmlns="http://www.w3.org/2000/svg" xmlns:xlink="http://www.w3.org/1999/xlink">
    <title>briefcase</title>
    <g id="达人广场" stroke="none" stroke-width="1" fill="none" fill-rule="evenodd">
        <g id="视频达人主页" transform="translate(-204.000000, -190.000000)">
            <g id="编组-60" transform="translate(80.000000, 86.000000)">
                <g id="编组-5" transform="translate(24.000000, 76.000000)">
                    <g id="briefcase" transform="translate(100.000000, 28.000000)">
                        <rect id="矩形" fill="#F5F7F9" x="0" y="0" width="24" height="24" rx="4"></rect>
                        <path d="M8.36363636,5.45454545 C8.36363636,4.65122182 9.01485818,4 9.81818182,4 L14.1818182,4 C14.9851636,4 15.6363636,4.65122182 15.6363636,5.45454545 L15.6363636,7.63636364 L17.8181818,7.63636364 L18.5454545,7.63636364 C19.3488,7.63636364 20,8.28758545 20,9.09090909 L20,9.81818182 L20,11.2727273 L4,11.2727273 L4,9.81818182 L4,9.09090909 C4,8.28758545 4.65122182,7.63636364 5.45454545,7.63636364 L6.18181818,7.63636364 L8.36363636,7.63636364 L8.36363636,5.45454545 Z M9.81818182,7.63636364 L14.1818182,7.63636364 L14.1818182,5.81818182 C14.1818182,5.61735273 14.0189818,5.45454545 13.8181818,5.45454545 L10.1818182,5.45454545 C9.98098909,5.45454545 9.81818182,5.61735273 9.81818182,5.81818182 L9.81818182,7.63636364 Z M14.1818182,13.0909091 C14.1818182,12.8901091 14.3446545,12.7272727 14.5454545,12.7272727 L20,12.7272727 L20,17.0909091 L20,17.8181818 C20,18.6215273 19.3488,19.2727273 18.5454545,19.2727273 L17.8181818,19.2727273 L6.18181818,19.2727273 L5.45454545,19.2727273 C4.65122182,19.2727273 4,18.6215273 4,17.8181818 L4,17.0909091 L4,12.7272727 L9.45454545,12.7272727 C9.65537455,12.7272727 9.81818182,12.8901091 9.81818182,13.0909091 L9.81818182,14.1818182 C9.81818182,14.5834909 10.1437964,14.9090909 10.5454545,14.9090909 L13.4545455,14.9090909 C13.8562182,14.9090909 14.1818182,14.5834909 14.1818182,14.1818182 L14.1818182,13.0909091 Z" id="形状" fill="#0075ff"></path>
                    </g>
                </g>
            </g>
        </g>
    </g>
</svg>
