<?xml version="1.0" encoding="UTF-8"?>
<svg width="24px" height="24px" viewBox="0 0 24 24" version="1.1" xmlns="http://www.w3.org/2000/svg" xmlns:xlink="http://www.w3.org/1999/xlink">
    <title>favorite_list</title>
    <g id="达人广场" stroke="none" stroke-width="1" fill="none" fill-rule="evenodd">
        <g id="视频达人主页" transform="translate(-168.000000, -190.000000)">
            <g id="编组-60" transform="translate(80.000000, 86.000000)">
                <g id="编组-5" transform="translate(24.000000, 76.000000)">
                    <g id="favorite_list" transform="translate(64.000000, 28.000000)">
                        <rect id="矩形" fill="#F5F7F9" x="0" y="0" width="24" height="24" rx="4"></rect>
                        <g id="编组-8" transform="translate(3.666666, 3.666666)" fill="#27AD60">
                            <path d="M9.331429,0.688846 C9.03230519,-0.22961419 7.72960043,-0.229616476 7.43047662,0.688846 L5.9127471,5.34816029 L1.00133376,5.34816029 C0.033173763,5.34816029 -0.369366428,6.58393933 0.413889953,7.15161933 L4.3873071,10.0311622 L2.86960043,14.6905146 C2.57042329,15.6089908 3.62428233,16.3727241 4.40753567,15.805105 L8.38095281,12.925486 L8.38095281,9.14285743 C8.38095281,8.72205743 8.72205757,8.38095267 9.14285757,8.38095267 L14.6516576,8.38095267 L16.3480385,7.15161933 C17.1312766,6.58394695 16.7287623,5.34816029 15.76061,5.34816029 L10.8491433,5.34816029 L9.331429,0.688846 Z" id="路径"></path>
                            <path d="M9.90476233,10.2857146 C9.90476233,10.0753527 10.0753528,9.90476219 10.2857147,9.90476219 L16.3809528,9.90476219 C16.5913147,9.90476219 16.7619052,10.0753527 16.7619052,10.2857146 L16.7619052,11.8095241 C16.7619052,12.019886 16.5913147,12.1904765 16.3809528,12.1904765 L10.2857147,12.1904765 C10.0753528,12.1904765 9.90476233,12.019886 9.90476233,11.8095241 L9.90476233,10.2857146 Z" id="路径" fill-rule="nonzero"></path>
                            <path d="M9.90476233,14.0952384 C9.90476233,13.8848765 10.0753528,13.714286 10.2857147,13.714286 L16.3809528,13.714286 C16.5913147,13.714286 16.7619052,13.8848765 16.7619052,14.0952384 L16.7619052,15.6190479 C16.7619052,15.8294098 16.5913147,16.0000003 16.3809528,16.0000003 L10.2857147,16.0000003 C10.0753528,16.0000003 9.90476233,15.8294098 9.90476233,15.6190479 L9.90476233,14.0952384 Z" id="路径" fill-rule="nonzero"></path>
                        </g>
                    </g>
                </g>
            </g>
        </g>
    </g>
</svg>