<?xml version="1.0" encoding="UTF-8"?>
<svg width="16px" height="16px" viewBox="0 0 16 16" version="1.1" xmlns="http://www.w3.org/2000/svg" xmlns:xlink="http://www.w3.org/1999/xlink">
    <title>trash-2备份</title>
    <g id="Brief重构" stroke="none" stroke-width="1" fill="none" fill-rule="evenodd">
        <g id="画板" transform="translate(-739.000000, -479.000000)">
            <g id="trash-2备份" transform="translate(739.000000, 479.000000)">
                <rect id="矩形" fill-opacity="0.01" fill="#FFFFFF" x="0" y="0" width="16" height="16"></rect>
                <polyline id="路径" stroke="#7B7C7D" stroke-width="1.33" stroke-linecap="round" stroke-linejoin="round" points="2 4 3.33333333 4 14 4"></polyline>
                <path d="M12.6666667,4 L12.6666667,13.3333333 C12.6666667,14.069713 12.069713,14.6666667 11.3333333,14.6666667 L4.66666667,14.6666667 C3.930287,14.6666667 3.33333333,14.069713 3.33333333,13.3333333 L3.33333333,4 M5.33333333,4 L5.33333333,2.66666667 C5.33333333,1.930287 5.930287,1.33333333 6.66666667,1.33333333 L9.33333333,1.33333333 C10.069713,1.33333333 10.6666667,1.930287 10.6666667,2.66666667 L10.6666667,4" id="形状" stroke="#7B7C7D" stroke-width="1.33" stroke-linecap="round" stroke-linejoin="round"></path>
                <line x1="6.66666667" y1="7.33333333" x2="6.66666667" y2="11.3333333" id="路径" stroke="#7B7C7D" stroke-width="1.33" stroke-linecap="round" stroke-linejoin="round"></line>
                <line x1="9.33333333" y1="7.33333333" x2="9.33333333" y2="11.3333333" id="路径" stroke="#7B7C7D" stroke-width="1.33" stroke-linecap="round" stroke-linejoin="round"></line>
            </g>
        </g>
    </g>
</svg>