<?xml version="1.0" encoding="UTF-8"?>
<svg width="14px" height="14px" viewBox="0 0 14 14" version="1.1" xmlns="http://www.w3.org/2000/svg" xmlns:xlink="http://www.w3.org/1999/xlink">
    <title>maximize</title>
    <g id="达人广场" stroke="none" stroke-width="1" fill="none" fill-rule="evenodd">
        <g id="状态完善" transform="translate(-3045.000000, -539.000000)" fill="#FFFFFF">
            <g id="编组-34备份" transform="translate(2867.000000, 206.000000)">
                <g id="maximize" transform="translate(178.000000, 333.000000)">
                    <rect id="矩形" fill-opacity="0.01" x="0" y="0" width="14" height="14"></rect>
                    <path d="M8.16666667,2.04166667 C8.16666667,1.55841583 8.55843333,1.16666667 9.04166667,1.16666667 L10.7916667,1.16666667 C11.91925,1.16666667 12.8333333,2.08075 12.8333333,3.20833333 L12.8333333,4.95833333 C12.8333333,5.44158417 12.4415667,5.83333333 11.9583333,5.83333333 C11.4751,5.83333333 11.0833333,5.44158417 11.0833333,4.95833333 L11.0833333,3.20833333 C11.0833333,3.04725167 10.952725,2.91666667 10.7916667,2.91666667 L9.04166667,2.91666667 C8.55843333,2.91666667 8.16666667,2.5249175 8.16666667,2.04166667 Z M1.16666667,3.20833333 C1.16666667,2.08075 2.08075,1.16666667 3.20833333,1.16666667 L4.95833333,1.16666667 C5.44158417,1.16666667 5.83333333,1.55841583 5.83333333,2.04166667 C5.83333333,2.5249175 5.44158417,2.91666667 4.95833333,2.91666667 L3.20833333,2.91666667 C3.04725167,2.91666667 2.91666667,3.04725167 2.91666667,3.20833333 L2.91666667,4.95833333 C2.91666667,5.44158417 2.5249175,5.83333333 2.04166667,5.83333333 C1.55841583,5.83333333 1.16666667,5.44158417 1.16666667,4.95833333 L1.16666667,3.20833333 Z M2.04166667,8.16666667 C2.5249175,8.16666667 2.91666667,8.55843333 2.91666667,9.04166667 L2.91666667,10.7916667 C2.91666667,10.952725 3.04725167,11.0833333 3.20833333,11.0833333 L4.95833333,11.0833333 C5.44158417,11.0833333 5.83333333,11.4751 5.83333333,11.9583333 C5.83333333,12.4415667 5.44158417,12.8333333 4.95833333,12.8333333 L3.20833333,12.8333333 C2.08075,12.8333333 1.16666667,11.91925 1.16666667,10.7916667 L1.16666667,9.04166667 C1.16666667,8.55843333 1.55841583,8.16666667 2.04166667,8.16666667 Z M11.9583333,8.16666667 C12.4415667,8.16666667 12.8333333,8.55843333 12.8333333,9.04166667 L12.8333333,10.7916667 C12.8333333,11.91925 11.91925,12.8333333 10.7916667,12.8333333 L9.04166667,12.8333333 C8.55843333,12.8333333 8.16666667,12.4415667 8.16666667,11.9583333 C8.16666667,11.4751 8.55843333,11.0833333 9.04166667,11.0833333 L10.7916667,11.0833333 C10.952725,11.0833333 11.0833333,10.952725 11.0833333,10.7916667 L11.0833333,9.04166667 C11.0833333,8.55843333 11.4751,8.16666667 11.9583333,8.16666667 Z" id="形状"></path>
                </g>
            </g>
        </g>
    </g>
</svg>