<?xml version="1.0" encoding="UTF-8"?>
<svg width="14px" height="14px" viewBox="0 0 14 14" version="1.1" xmlns="http://www.w3.org/2000/svg" xmlns:xlink="http://www.w3.org/1999/xlink">
    <title>mute</title>
    <g id="达人广场" stroke="none" stroke-width="1" fill="none" fill-rule="evenodd">
        <g id="状态完善" transform="translate(-3261.000000, -516.000000)" fill="#FFFFFF">
            <g id="编组-34备份-2" transform="translate(3083.000000, 206.000000)">
                <g id="mute" transform="translate(178.000000, 310.000000)">
                    <rect id="矩形" fill-opacity="0.01" x="0" y="0" width="14" height="14"></rect>
                    <path d="M7,1.75000583 C7,1.52576667 6.87149167,1.32138417 6.66936667,1.2242475 C6.46724167,1.12711083 6.227375,1.15441667 6.05225833,1.29449833 L2.712045,4.08333917 L1.16666667,4.08333917 C0.844503333,4.08333917 0.583333333,4.34450333 0.583333333,4.66666733 L0.583333333,9.33333333 C0.583333333,9.65550833 0.844503333,9.91666667 1.16666667,9.91666667 L2.712045,9.91666667 L6.05225833,12.705525 C6.227375,12.8455833 6.46724167,12.8728833 6.66936667,12.7757583 C6.87149167,12.6786333 7,12.4742333 7,12.25 L7,1.75000583 Z M8.202075,4.63128167 C8.54373333,4.28957083 9.09778333,4.28957083 9.4395,4.63128167 L10.5,5.69179333 L11.5605,4.63128167 C11.9022167,4.28957083 12.4562667,4.28957083 12.797925,4.63128167 C13.1396417,4.9729925 13.1396417,5.5270075 12.797925,5.86874167 L11.737425,6.92924167 L12.8687417,8.0605 C13.2104,8.40221667 13.2104,8.95626667 12.8687417,9.297925 C12.527025,9.63964167 11.972975,9.63964167 11.6312583,9.297925 L10.5,8.16666667 L9.36874167,9.297925 C9.027025,9.63964167 8.472975,9.63964167 8.13125833,9.297925 C7.7896,8.95626667 7.7896,8.40221667 8.13125833,8.0605 L9.262575,6.92924167 L8.202075,5.86874167 C7.86035833,5.5270075 7.86035833,4.9729925 8.202075,4.63128167 Z" id="形状"></path>
                </g>
            </g>
        </g>
    </g>
</svg>