<?xml version="1.0" encoding="UTF-8"?>
<svg width="14px" height="14px" viewBox="0 0 14 14" version="1.1" xmlns="http://www.w3.org/2000/svg" xmlns:xlink="http://www.w3.org/1999/xlink">
    <title>pause</title>
    <g id="达人广场" stroke="none" stroke-width="1" fill="none" fill-rule="evenodd">
        <g id="状态完善" transform="translate(-2875.000000, -516.000000)" fill="#FFFFFF">
            <g id="编组-34备份" transform="translate(2867.000000, 206.000000)">
                <g id="pause" transform="translate(8.000000, 310.000000)">
                    <rect id="矩形" fill-opacity="0.01" x="0" y="0" width="14" height="14"></rect>
                    <path d="M2.625,2.77083333 C2.625,1.88487833 3.34321167,1.16666667 4.22916667,1.16666667 C5.11512167,1.16666667 5.83333333,1.88487833 5.83333333,2.77083333 L5.83333333,11.2291667 C5.83333333,12.1151333 5.11512167,12.8333333 4.22916667,12.8333333 C3.34321167,12.8333333 2.625,12.1151333 2.625,11.2291667 L2.625,2.77083333 Z" id="路径" fill-rule="nonzero"></path>
                    <path d="M8.16666667,2.77083333 C8.16666667,1.88487833 8.88486667,1.16666667 9.77083333,1.16666667 C10.6568,1.16666667 11.375,1.88487833 11.375,2.77083333 L11.375,11.2291667 C11.375,12.1151333 10.6568,12.8333333 9.77083333,12.8333333 C8.88486667,12.8333333 8.16666667,12.1151333 8.16666667,11.2291667 L8.16666667,2.77083333 Z" id="路径" fill-rule="nonzero"></path>
                </g>
            </g>
        </g>
    </g>
</svg>