<?xml version="1.0" encoding="UTF-8"?>
<svg width="42px" height="42px" viewBox="0 0 42 42" version="1.1" xmlns="http://www.w3.org/2000/svg" xmlns:xlink="http://www.w3.org/1999/xlink">
    <title>play_circle</title>
    <g id="达人广场" stroke="none" stroke-width="1" fill="none" fill-rule="evenodd">
        <g id="视频达人主页" transform="translate(-743.000000, -853.000000)">
            <g id="编组-39" transform="translate(448.000000, 696.000000)">
                <g id="编组-33" transform="translate(216.000000, 0.000000)">
                    <g id="play_circle" transform="translate(80.000000, 158.000000)">
                        <rect id="矩形" fill-opacity="0.01" fill="#FFFFFF" x="0" y="0" width="40" height="40"></rect>
                        <path d="M20,0.666666667 C25.3387307,0.666666667 30.1720698,2.83062918 33.6707232,6.32928259 C37.1693681,9.82792744 39.3333333,14.6612559 39.3333333,20 C39.3333333,25.3387242 37.1693635,30.1720584 33.6707109,33.6707109 C30.1720584,37.1693635 25.3387242,39.3333333 20,39.3333333 C14.6612559,39.3333333 9.82792744,37.1693681 6.32928259,33.6707232 C2.83062918,30.1720698 0.666666667,25.3387307 0.666666667,20 C0.666666667,14.6612494 2.8306246,9.827916 6.3292703,6.3292703 C9.827916,2.8306246 14.6612494,0.666666667 20,0.666666667 Z" id="路径" stroke-opacity="0.848011364" stroke="#FFFFFF" stroke-width="2" fill-opacity="0.500546329" fill="#000000"></path>
                        <path d="M17.5911667,11.72745 C16.4835833,10.98905 15,11.7830333 15,13.1142 L15,26.8858333 C15,28.217 16.4835833,29.011 17.5911667,28.2725 L27.9198333,21.3868333 C28.9095,20.727 28.9095,19.273 27.9198333,18.6131667 L17.5911667,11.72745 Z" id="路径" fill="#FFFFFF"></path>
                    </g>
                </g>
            </g>
        </g>
    </g>
</svg>