<?xml version="1.0" encoding="UTF-8"?>
<svg width="14px" height="14px" viewBox="0 0 14 14" version="1.1" xmlns="http://www.w3.org/2000/svg" xmlns:xlink="http://www.w3.org/1999/xlink">
    <title>volume_2</title>
    <g id="达人广场" stroke="none" stroke-width="1" fill="none" fill-rule="evenodd">
        <g id="状态完善" transform="translate(-3045.000000, -516.000000)" fill="#FFFFFF">
            <g id="编组-34备份" transform="translate(2867.000000, 206.000000)">
                <g id="volume_2" transform="translate(178.000000, 310.000000)">
                    <rect id="矩形" fill-opacity="0.01" x="0" y="0" width="14" height="14"></rect>
                    <path d="M6.66936667,1.2242475 C6.87149167,1.32138417 7,1.52576667 7,1.75000583 L7,12.25 C7,12.4742333 6.87149167,12.6786333 6.66936667,12.7757583 C6.46724167,12.8728833 6.227375,12.8455833 6.05225833,12.705525 L2.712045,9.91666667 L1.16666667,9.91666667 C0.844503333,9.91666667 0.583333333,9.65550833 0.583333333,9.33333333 L0.583333333,4.66666733 C0.583333333,4.34450333 0.844503333,4.08333917 1.16666667,4.08333917 L2.712045,4.08333917 L6.05225833,1.29449833 C6.227375,1.15441667 6.46724167,1.12711083 6.66936667,1.2242475 Z M8.13761667,4.91670667 C8.48271667,4.57847833 9.03670833,4.58409583 9.37498333,4.92925417 C9.8896,5.4544175 10.2083333,6.1761 10.2083333,6.97054167 C10.2083333,7.764925 9.8896,8.48668333 9.37498333,9.0118 C9.03670833,9.35695833 8.48271667,9.36261667 8.13761667,9.02434167 C7.79245833,8.686125 7.7868,8.13213333 8.12501667,7.786975 C8.3321,7.57569167 8.45833333,7.28875 8.45833333,6.97054167 C8.45833333,6.65233333 8.3321,6.36539167 8.12501667,6.15410833 C7.7868,5.80892083 7.79245833,5.254935 8.13761667,4.91670667 Z M10.9928,2.41802167 C10.59345,2.14585583 10.0491417,2.2489425 9.77695833,2.64826333 C9.504775,3.04758417 9.60790833,3.59193333 10.0072,3.86409333 C11.0107667,4.54806333 11.6666667,5.69755667 11.6666667,7 C11.6666667,8.30240833 11.0107667,9.451925 10.0072,10.1358833 C9.60790833,10.4080667 9.504775,10.952375 9.77695833,11.351725 C10.0491417,11.7510167 10.59345,11.85415 10.9928,11.5819667 C12.4541667,10.5859833 13.4166667,8.90551667 13.4166667,7 C13.4166667,5.09447167 12.4541667,3.41401667 10.9928,2.41802167 Z" id="形状"></path>
                </g>
            </g>
        </g>
    </g>
</svg>